<svg version="1.1" xmlns="http://www.w3.org/2000/svg" xmlns:xlink="http://www.w3.org/1999/xlink" x="0px" y="0px" width="200px"
	 height="200px" viewBox="0 0 200 200" enable-background="new 0 0 200 200" xml:space="preserve">

<g id="go_back">
	<path fill-rule="evenodd" clip-rule="evenodd" fill="none" stroke="#FFFFFF" stroke-width="4" stroke-miterlimit="10" d="
		M62.634,52.974c4.673,4.638,9.322,9.097,13.761,13.755c1.395,1.465,2.79,3.347,3.196,5.25c0.861,4.027-2.568,7.822-6.958,7.845
		c-16.18,0.093-32.363,0.093-48.542,0.008c-4.774-0.026-7.582-2.962-7.6-7.818c-0.067-15.946-0.015-31.893-0.035-47.839
		c-0.002-3.269,1.343-5.577,4.369-6.952c3.012-1.372,5.569-0.493,7.699,1.637c4.634,4.638,9.137,9.404,13.874,14.304
		c7.722-7.028,15.868-12.389,24.886-16.478c37.23-16.868,83.85-2.425,104.949,32.59c20.473,33.977,16.842,74.157-10.441,102.755
		c-20.051,21.017-45.15,29.421-74.111,25.125c-20.017-2.971-36.626-12.354-50.109-27.377c-3.134-3.494-3.108-4.883,0.257-8.276
		c3.715-3.748,7.453-7.473,11.189-11.198c4.328-4.32,5.285-4.3,9.21,0.207c12.196,13.993,27.649,20.423,46.117,19.667
		c25.715-1.051,48.896-22.391,52.164-47.921c3.885-30.357-14.631-57.105-44.402-63.368c-17.958-3.773-34.115,0.707-48.117,12.658
		C63.562,51.909,63.212,52.361,62.634,52.974z"/>
	<text fill="#FFFFFF" transform="matrix(1 0 0 1 82.8828 85.4062)" font-family="'MyriadPro-Regular'" font-size="52.6159">30</text>
	<text fill="#FFFFFF" transform="matrix(1 0 0 1 47.686 126.4111)" font-family="'MyriadPro-Regular'" font-size="22.6828">GO BACK</text>
	<text fill="#FFFFFF" transform="matrix(1 0 0 1 83.8823 107.5469)" font-family="'MyriadPro-Regular'" font-size="37.7858">sec</text>
</g>
</svg>
